<?xml version="1.0" encoding="UTF-8"?>
<!DOCTYPE svg PUBLIC "-//W3C//DTD SVG 1.1//EN" "http://www.w3.org/Graphics/SVG/1.1/DTD/svg11.dtd">
<svg xmlns="http://www.w3.org/2000/svg" version="1.1" width="512px" height="512px" style="shape-rendering:geometricPrecision; text-rendering:geometricPrecision; image-rendering:optimizeQuality; fill-rule:evenodd; clip-rule:evenodd" xmlns:xlink="http://www.w3.org/1999/xlink">
<g><path style="opacity:0.927" fill="#502c03" d="M 382.5,408.5 C 381.167,409.167 380.167,410.167 379.5,411.5C 376.436,411.981 375.602,413.314 377,415.5C 379.717,424.393 376.884,430.393 368.5,433.5C 370.729,440.403 369.396,446.403 364.5,451.5C 362.847,451.66 361.514,452.326 360.5,453.5C 358.304,453.565 356.304,454.232 354.5,455.5C 353.789,464.878 348.789,469.878 339.5,470.5C 336.503,477.343 331.17,480.676 323.5,480.5C 317.648,479.93 311.981,478.596 306.5,476.5C 304.18,485.158 298.847,487.658 290.5,484C 286.381,482.441 282.381,480.607 278.5,478.5C 276.395,480.468 273.895,481.468 271,481.5C 266.737,480.968 262.737,479.635 259,477.5C 254.502,481.243 249.335,482.409 243.5,481C 239.127,479.287 235.293,476.787 232,473.5C 225.785,477.762 218.952,479.262 211.5,478C 206.929,476.427 204.096,473.26 203,468.5C 199.679,469.971 196.179,470.637 192.5,470.5C 193.11,468.566 194.11,466.899 195.5,465.5C 200.047,465.322 204.214,463.989 208,461.5C 206.163,472.316 210.663,476.15 221.5,473C 225.714,472.226 229.381,470.393 232.5,467.5C 236.913,472.37 242.246,475.703 248.5,477.5C 252.971,477.199 255.804,474.866 257,470.5C 261.144,473.489 265.644,475.822 270.5,477.5C 273.458,476.62 275.291,474.62 276,471.5C 282.204,475.956 289.038,478.956 296.5,480.5C 298.32,480.351 299.82,479.684 301,478.5C 301.32,475.46 301.32,472.46 301,469.5C 310.548,475.361 320.715,476.861 331.5,474C 335.527,470.689 335.193,467.689 330.5,465C 334.452,465.434 338.452,465.434 342.5,465C 347.519,463.634 349.852,460.301 349.5,455C 349.385,453.105 348.718,451.438 347.5,450C 351.5,449.667 355.5,449.333 359.5,449C 365.092,446.598 366.925,442.431 365,436.5C 364.215,434.714 363.049,433.214 361.5,432C 371.487,431.351 375.321,426.184 373,416.5C 370.958,414.396 368.458,413.229 365.5,413C 369.746,411.643 373.746,409.81 377.5,407.5C 380.963,404.241 381.296,400.741 378.5,397C 375.289,395.847 371.956,395.18 368.5,395C 373.081,393.129 377.248,390.629 381,387.5C 383.379,383.971 382.546,381.471 378.5,380C 376.167,379.333 373.833,379.333 371.5,380C 367.411,382.127 363.577,384.627 360,387.5C 359.667,383.5 359.333,379.5 359,375.5C 358.266,373.264 356.766,371.931 354.5,371.5C 351.345,372.15 348.845,373.817 347,376.5C 343.084,381.996 339.418,387.663 336,393.5C 333.189,387.177 328.355,384.677 321.5,386C 318.218,389.153 316.052,392.987 315,397.5C 308.542,391.334 301.875,391.001 295,396.5C 294.667,397.833 294.333,399.167 294,400.5C 288.31,389.108 280.976,387.775 272,396.5C 270.829,398.842 269.662,401.176 268.5,403.5C 263.575,398.371 257.575,395.371 250.5,394.5C 245.504,394.327 242.337,396.66 241,401.5C 236.598,395.804 230.931,392.137 224,390.5C 220.103,391.586 218.103,394.253 218,398.5C 214.266,395.048 210.1,392.215 205.5,390C 201.418,388.707 198.251,389.874 196,393.5C 195.069,386.689 192.236,380.856 187.5,376C 183.831,375.464 181.164,376.964 179.5,380.5C 176.684,374.856 172.684,370.356 167.5,367C 164.653,366.056 162.153,366.556 160,368.5C 159.466,372.836 160.133,376.836 162,380.5C 153.926,374.105 145.092,368.938 135.5,365C 127.015,362.979 123.848,366.145 126,374.5C 126.914,376.664 128.081,378.664 129.5,380.5C 125.167,383 120.833,385.5 116.5,388C 112.59,392.075 112.59,396.075 116.5,400C 122.366,403.383 128.699,405.05 135.5,405C 131.396,407.432 128.396,410.766 126.5,415C 126.7,417.537 128.033,419.204 130.5,420C 135.202,420.172 139.868,420.672 144.5,421.5C 140.492,425.852 137.826,430.852 136.5,436.5C 135.005,436.011 133.671,435.345 132.5,434.5C 132.503,431.325 133.503,428.492 135.5,426C 130.807,425.29 126.64,423.457 123,420.5C 120.825,416.041 121.325,411.874 124.5,408C 116.164,406.815 110.83,402.315 108.5,394.5C 110.532,386.632 115.532,381.465 123.5,379C 120.244,374.449 119.744,369.616 122,364.5C 123.214,362.951 124.714,361.785 126.5,361C 131.204,360.352 135.871,360.519 140.5,361.5C 141.281,354.469 142.281,347.469 143.5,340.5C 104.468,333.569 70.9675,316.236 43,288.5C 36.2162,279.03 35.8829,269.363 42,259.5C 51.6183,249.351 62.4516,247.851 74.5,255C 82.7097,253.688 86.8764,257.188 87,265.5C 102.535,279.018 120.368,287.851 140.5,292C 121.739,280.569 108.906,264.402 102,243.5C 99.9472,234.509 98.1139,225.509 96.5,216.5C 71.413,214.411 58.7463,200.744 58.5,175.5C 60.3512,150.944 73.3512,136.444 97.5,132C 107.953,130.446 117.286,132.946 125.5,139.5C 135.085,129.082 145.752,119.916 157.5,112C 149.913,109.997 147.08,105.164 149,97.5C 152.36,91.3066 157.193,86.64 163.5,83.5C 158.312,78.8319 158.312,74.3319 163.5,70C 176.871,65.949 190.371,66.1157 204,70.5C 204.5,70.1667 205,69.8333 205.5,69.5C 203.223,63.0528 205.389,59.0528 212,57.5C 221.301,59.4829 229.301,63.8162 236,70.5C 242.23,55.8198 249.23,41.4864 257,27.5C 264.102,18.9171 269.768,19.9171 274,30.5C 276.149,37.7642 277.983,45.0976 279.5,52.5C 284.665,52.24 289.498,53.5734 294,56.5C 296.775,61.4565 298.108,66.7898 298,72.5C 305.212,68.7884 312.712,67.955 320.5,70C 325.166,74.0056 325.666,78.5056 322,83.5C 320.647,84.6853 319.48,86.0186 318.5,87.5C 324.473,88.7735 330.473,89.9402 336.5,91C 340.805,91.9032 344.639,93.7365 348,96.5C 349.724,101.731 348.224,105.565 343.5,108C 350.909,113.29 352.242,119.79 347.5,127.5C 348.5,128.833 349.5,130.167 350.5,131.5C 363.204,130.231 375.204,132.731 386.5,139C 404.426,153.795 409.593,172.295 402,194.5C 398.389,202.942 392.556,209.275 384.5,213.5C 397.994,250.185 387.661,278.018 353.5,297C 350.806,299.653 349.973,302.82 351,306.5C 359.132,321.645 371.632,327.145 388.5,323C 398.586,319.58 406.252,313.247 411.5,304C 405.946,291.223 407.779,279.39 417,268.5C 417.433,257.83 417.267,247.164 416.5,236.5C 413.602,222.899 418.935,217.399 432.5,220C 433.667,221.167 434.833,222.333 436,223.5C 437.293,235.404 437.96,247.404 438,259.5C 442,246.833 446,234.167 450,221.5C 450.465,220.069 451.299,218.903 452.5,218C 465.595,213.467 472.429,217.967 473,231.5C 467.021,244.623 461.187,257.79 455.5,271C 468.515,276.866 473.015,286.699 469,300.5C 466.132,311.895 458.965,317.228 447.5,316.5C 429.921,350.541 401.921,369.374 363.5,373C 364.249,374.734 364.749,376.567 365,378.5C 370.155,375.695 375.655,374.862 381.5,376C 389.376,381.473 389.376,387.14 381.5,393C 386.307,397.967 386.64,403.134 382.5,408.5 Z"/></g>
<g><path style="opacity:1" fill="#eee43b" d="M 263.5,26.5 C 265.39,26.2965 266.89,26.9632 268,28.5C 270.285,32.1869 271.452,36.1869 271.5,40.5C 267.818,40.6653 264.152,40.4986 260.5,40C 258.998,39.4169 257.665,38.5836 256.5,37.5C 258.594,33.6358 260.928,29.9692 263.5,26.5 Z"/></g>
<g><path style="opacity:1" fill="#f0e63c" d="M 255.5,39.5 C 256.683,40.5045 258.016,41.3378 259.5,42C 264.004,42.3404 268.337,42.5071 272.5,42.5C 274.148,48.3882 275.148,54.3882 275.5,60.5C 266.321,63.8174 257.655,62.8174 249.5,57.5C 248.394,55.7156 248.394,53.8822 249.5,52C 251.377,47.7461 253.377,43.5794 255.5,39.5 Z"/></g>
<g><path style="opacity:1" fill="#768f3c" d="M 232.5,92.5 C 232.231,94.4286 232.731,96.0953 234,97.5C 234.949,94.8003 236.783,93.967 239.5,95C 241.333,96.8333 243.167,98.6667 245,100.5C 245.79,94.8763 248.957,93.0429 254.5,95C 258.333,97.5 261.5,100.667 264,104.5C 266.068,99.4638 268.235,94.4638 270.5,89.5C 270.833,88.8333 271.167,88.1667 271.5,87.5C 273.102,85.9261 275.102,85.2594 277.5,85.5C 277.328,86.4916 277.662,87.1583 278.5,87.5C 278.335,90.5184 278.502,93.5184 279,96.5C 280.176,94.8043 281.343,93.1376 282.5,91.5C 284.714,90.6085 285.714,88.9418 285.5,86.5C 283.446,76.8976 281.779,67.231 280.5,57.5C 284.516,56.8999 288.016,57.8999 291,60.5C 292.41,66.3792 292.91,72.3792 292.5,78.5C 297.168,77.111 301.835,75.611 306.5,74C 310.5,73.3333 314.5,73.3333 318.5,74C 319.926,76.7114 319.592,79.2114 317.5,81.5C 313.319,85.4208 308.652,88.5875 303.5,91C 313.534,92.0075 323.534,93.3408 333.5,95C 337.401,95.6765 340.901,97.1765 344,99.5C 344.09,101.768 342.923,103.268 340.5,104C 336.339,105.737 332.005,106.737 327.5,107C 332.728,108.41 337.728,110.41 342.5,113C 346.843,117.564 346.509,121.564 341.5,125C 336.743,125.291 332.076,124.958 327.5,124C 332.064,125.73 335.064,128.896 336.5,133.5C 336.471,135.029 335.804,136.196 334.5,137C 330.833,137.667 327.167,137.667 323.5,137C 316.129,134.43 308.796,132.097 301.5,130C 308.502,134.97 308.169,139.304 300.5,143C 292.095,145.23 285.261,142.73 280,135.5C 279.667,138.167 279.333,140.833 279,143.5C 276.321,146.835 273.155,147.335 269.5,145C 267.031,142.559 265.198,139.726 264,136.5C 260.869,140.633 257.369,144.466 253.5,148C 247.445,151.639 241.112,152.305 234.5,150C 229.37,143.972 229.37,137.805 234.5,131.5C 225.929,133.06 217.262,135.227 208.5,138C 205.833,138.333 203.167,138.667 200.5,139C 196.044,139.867 191.711,139.534 187.5,138C 184.833,135.667 184.833,133.333 187.5,131C 179.4,132.697 171.4,135.03 163.5,138C 160.833,138.667 158.167,138.667 155.5,138C 153.982,132.681 154.482,127.515 157,122.5C 160.252,116.748 164.085,111.415 168.5,106.5C 164.287,106.437 159.954,106.271 155.5,106C 152.913,104.475 152.08,102.308 153,99.5C 158.443,92.074 165.609,86.9073 174.5,84C 171.088,82.5455 167.921,80.7121 165,78.5C 164.28,76.8876 164.446,75.3876 165.5,74C 182.705,69.5256 199.038,71.6923 214.5,80.5C 214.833,80.3333 215.167,80.1667 215.5,80C 210.959,75.0566 209.292,69.3899 210.5,63C 219.865,63.9753 227.698,68.142 234,75.5C 232.657,80.718 230.823,85.8846 228.5,91C 229.158,93.4997 230.491,93.9997 232.5,92.5 Z"/></g>
<g><path style="opacity:1" fill="#f2e83d" d="M 277.5,85.5 C 275.102,85.2594 273.102,85.9261 271.5,87.5C 259.173,89.6659 248.34,86.6659 239,78.5C 238.333,77.5 238.333,76.5 239,75.5C 241.339,69.489 244.172,63.8223 247.5,58.5C 256.437,64.6913 266.104,66.1913 276.5,63C 278.32,70.0743 279.487,77.2409 280,84.5C 279.329,85.2524 278.496,85.5858 277.5,85.5 Z"/></g>
<g><path style="opacity:1" fill="#efe63c" d="M 270.5,89.5 C 268.235,94.4638 266.068,99.4638 264,104.5C 261.5,100.667 258.333,97.5 254.5,95C 248.957,93.0429 245.79,94.8763 245,100.5C 243.167,98.6667 241.333,96.8333 239.5,95C 236.783,93.967 234.949,94.8003 234,97.5C 232.731,96.0953 232.231,94.4286 232.5,92.5C 233.62,88.2618 235.287,84.2618 237.5,80.5C 247.181,88.1693 258.181,91.1693 270.5,89.5 Z"/></g>
<g><path style="opacity:1" fill="#e2da3a" d="M 282.5,91.5 C 281.343,93.1376 280.176,94.8043 279,96.5C 278.502,93.5184 278.335,90.5184 278.5,87.5C 281.46,86.5843 282.793,87.9177 282.5,91.5 Z"/></g>
<g><path style="opacity:1" fill="#b5d35b" d="M 380.5,216.5 C 373.571,218.632 367.571,222.298 362.5,227.5C 373.42,207.006 368.753,191.173 348.5,180C 329.153,174.666 315.319,181.166 307,199.5C 303.305,218.613 310.472,231.779 328.5,239C 339.797,241.176 349.797,238.676 358.5,231.5C 346.286,250.546 345.286,270.213 355.5,290.5C 349.382,295.312 342.548,298.979 335,301.5C 334.388,303.237 335.054,304.237 337,304.5C 348.865,299.279 349.699,301.446 339.5,311C 327.597,316.523 315.264,320.857 302.5,324C 302.043,324.414 301.709,324.914 301.5,325.5C 315.234,324.929 328.234,321.262 340.5,314.5C 349.421,331.526 355.255,349.526 358,368.5C 355.123,367.17 352.289,367.336 349.5,369C 344.03,373.464 339.697,378.797 336.5,385C 334.193,384.358 331.859,383.358 329.5,382C 326.5,381.333 323.5,381.333 320.5,382C 317.032,384.124 314.365,386.957 312.5,390.5C 305.962,387.524 299.629,387.858 293.5,391.5C 282.719,383.611 273.719,385.278 266.5,396.5C 260.213,391.903 253.213,390.07 245.5,391C 243.413,391.792 241.579,392.959 240,394.5C 234.623,389.042 228.123,386.542 220.5,387C 218.658,388.344 216.992,389.844 215.5,391.5C 210.39,386.908 204.39,384.908 197.5,385.5C 196.604,380.542 194.271,376.376 190.5,373C 187.007,370.864 183.674,371.031 180.5,373.5C 177.673,369.841 174.34,366.674 170.5,364C 162.731,360.451 157.397,362.617 154.5,370.5C 151.833,368.833 149.167,367.167 146.5,365.5C 145.253,356.777 145.587,348.11 147.5,339.5C 157.169,340.621 166.835,340.621 176.5,339.5C 125.634,338.17 82.134,319.836 46,284.5C 39.0957,272.047 41.929,262.547 54.5,256C 61.5445,254.437 67.8778,255.77 73.5,260C 75.856,260.155 78.1893,260.155 80.5,260C 80.5536,264.438 82.2203,268.105 85.5,271C 111.401,290.967 140.734,300.967 173.5,301C 174.598,300.23 174.598,299.397 173.5,298.5C 185.415,285.537 189.915,270.204 187,252.5C 185.573,246.317 183.073,240.65 179.5,235.5C 198.948,244.186 214.115,239.52 225,221.5C 230.874,205.122 226.707,191.955 212.5,182C 190.471,172.931 174.971,179.431 166,201.5C 164.828,208.628 165.661,215.462 168.5,222C 168.272,222.399 167.938,222.565 167.5,222.5C 147.052,209.039 126.719,209.206 106.5,223C 105.29,224.039 104.29,225.206 103.5,226.5C 102.518,223.038 102.185,219.371 102.5,215.5C 110.111,214.408 117.111,211.741 123.5,207.5C 124.429,206.311 124.762,204.978 124.5,203.5C 121.286,204.44 118.286,205.94 115.5,208C 79.2656,217.762 62.0989,203.929 64,166.5C 72.6083,142.579 89.4416,133.079 114.5,138C 121.022,141.855 126.189,147.022 130,153.5C 131.28,153.387 132.113,152.72 132.5,151.5C 130.691,148.581 129.524,145.581 129,142.5C 135.892,134.142 143.725,126.808 152.5,120.5C 153.041,122.523 152.541,124.523 151,126.5C 150.333,130.167 150.333,133.833 151,137.5C 153.435,142.224 157.269,143.724 162.5,142C 168.598,140.476 174.598,138.642 180.5,136.5C 184.187,141.924 189.354,144.258 196,143.5C 206.376,142.458 216.542,140.458 226.5,137.5C 225.059,149.049 230.059,155.049 241.5,155.5C 244.592,155.493 247.592,154.993 250.5,154C 255.188,151.322 259.521,148.156 263.5,144.5C 270.293,152.434 276.959,152.434 283.5,144.5C 295.092,150.692 304.592,148.358 312,137.5C 319.498,140.999 327.331,142.166 335.5,141C 340.186,138.543 341.519,134.877 339.5,130C 340.833,129.333 342.167,129.333 343.5,130C 358.076,145.992 366.576,164.826 369,186.5C 372.576,196.642 376.409,206.642 380.5,216.5 Z"/></g>
<g><path style="opacity:1" fill="#768d3b" d="M 354.5,136.5 C 375.396,134.915 390.23,143.581 399,162.5C 401.255,173.342 400.588,184.008 397,194.5C 393.64,200.693 388.807,205.36 382.5,208.5C 379.473,203.779 376.973,198.779 375,193.5C 372.095,180.992 368.595,168.658 364.5,156.5C 364.846,155.304 365.346,155.304 366,156.5C 368.261,160.95 369.928,165.617 371,170.5C 371.96,163.506 369.793,157.673 364.5,153C 378.67,152.836 386.003,159.836 386.5,174C 386.691,177.698 386.024,181.198 384.5,184.5C 386.325,185.571 387.492,184.904 388,182.5C 391.517,161.521 382.683,150.521 361.5,149.5C 359.396,144.953 357.063,140.62 354.5,136.5 Z"/></g>
<g><path style="opacity:1" fill="#59390a" d="M 92.5,150.5 C 104.426,148.787 112.093,153.621 115.5,165C 113.728,168.128 111.895,171.295 110,174.5C 108.537,180.74 110.703,185.24 116.5,188C 112.226,187.926 109.393,185.759 108,181.5C 107.384,175.222 109.217,169.722 113.5,165C 112.095,156.733 107.428,153.567 99.5,155.5C 95.9425,159.832 93.9425,164.832 93.5,170.5C 91.9906,163.529 93.9906,157.696 99.5,153C 85.6058,152.726 78.2724,159.559 77.5,173.5C 77.3669,177.33 78.0336,180.996 79.5,184.5C 78.7261,185.711 77.8928,185.711 77,184.5C 71.7349,168.048 76.9016,156.715 92.5,150.5 Z"/></g>
<g><path style="opacity:1" fill="#56320b" d="M 179.5,235.5 C 174.821,231.82 170.821,227.486 167.5,222.5C 167.938,222.565 168.272,222.399 168.5,222C 165.661,215.462 164.828,208.628 166,201.5C 174.971,179.431 190.471,172.931 212.5,182C 226.707,191.955 230.874,205.122 225,221.5C 214.115,239.52 198.948,244.186 179.5,235.5 Z"/></g>
<g><path style="opacity:1" fill="#57340c" d="M 362.5,227.5 C 361.5,229.167 360.167,230.5 358.5,231.5C 349.797,238.676 339.797,241.176 328.5,239C 310.472,231.779 303.305,218.613 307,199.5C 315.319,181.166 329.153,174.666 348.5,180C 368.753,191.173 373.42,207.006 362.5,227.5 Z"/></g>
<g><path style="opacity:1" fill="#563608" d="M 286.5,211.5 C 285.503,211.53 284.836,211.03 284.5,210C 285.692,207.945 285.692,205.945 284.5,204C 283.551,203.383 282.718,203.549 282,204.5C 281.818,207.226 281.318,209.893 280.5,212.5C 278.976,208.73 279.309,205.23 281.5,202C 283.724,201.96 285.724,201.794 287.5,201.5C 289.932,192.183 286.599,186.35 277.5,184C 270.946,182.919 264.612,183.586 258.5,186C 252.534,192.202 251.867,199.036 256.5,206.5C 256.328,207.492 256.662,208.158 257.5,208.5C 258.947,211.306 258.28,212.306 255.5,211.5C 245.501,188.987 252.835,178.82 277.5,181C 287.822,182.981 292.322,189.148 291,199.5C 290.162,203.86 288.662,207.86 286.5,211.5 Z"/></g>
<g><path style="opacity:1" fill="#fbfaf9" d="M 188.5,181.5 C 204.945,179.134 216.445,185.468 223,200.5C 225.773,224.729 214.939,236.562 190.5,236C 176.721,231.794 169.388,222.461 168.5,208C 170.052,195.284 176.719,186.451 188.5,181.5 Z"/></g>
<g><path style="opacity:1" fill="#fcfbfa" d="M 329.5,181.5 C 353.832,180 365.332,191.333 364,215.5C 358.381,231.393 347.215,238.226 330.5,236C 312.039,228.578 305.872,215.411 312,196.5C 316.199,189.5 322.032,184.5 329.5,181.5 Z"/></g>
<g><path style="opacity:1" fill="#b3d15a" d="M 287.5,201.5 C 285.841,200.03 283.841,199.363 281.5,199.5C 274.181,200.184 266.848,200.684 259.5,201C 258.131,202.719 257.131,204.552 256.5,206.5C 251.867,199.036 252.534,192.202 258.5,186C 264.612,183.586 270.946,182.919 277.5,184C 286.599,186.35 289.932,192.183 287.5,201.5 Z"/></g>
<g><path style="opacity:1" fill="#512b05" d="M 192.5,196.5 C 205.544,196.593 210.378,202.927 207,215.5C 198.855,223.921 191.522,223.254 185,213.5C 182.785,205.6 185.285,199.934 192.5,196.5 Z"/></g>
<g><path style="opacity:1" fill="#522c07" d="M 333.5,196.5 C 347.262,197.039 351.762,203.706 347,216.5C 337.43,224.352 330.097,222.685 325,211.5C 324.21,204.41 327.044,199.41 333.5,196.5 Z"/></g>
<g><path style="opacity:1" fill="#788f3c" d="M 287.5,201.5 C 285.724,201.794 283.724,201.96 281.5,202C 279.309,205.23 278.976,208.73 280.5,212.5C 281.318,209.893 281.818,207.226 282,204.5C 282.718,203.549 283.551,203.383 284.5,204C 285.692,205.945 285.692,207.945 284.5,210C 284.836,211.03 285.503,211.53 286.5,211.5C 281.828,217.149 275.828,218.982 268.5,217C 264.131,215.416 260.965,212.583 259,208.5C 258.31,207.262 257.81,207.262 257.5,208.5C 256.662,208.158 256.328,207.492 256.5,206.5C 257.131,204.552 258.131,202.719 259.5,201C 266.848,200.684 274.181,200.184 281.5,199.5C 283.841,199.363 285.841,200.03 287.5,201.5 Z"/></g>
<g><path style="opacity:1" fill="#523307" d="M 262.5,201.5 C 265.238,200.965 267.072,201.965 268,204.5C 268.874,207.379 268.54,210.045 267,212.5C 266.782,209.574 266.282,206.74 265.5,204C 262.671,203.311 261.004,204.478 260.5,207.5C 259.021,204.743 259.687,202.743 262.5,201.5 Z"/></g>
<g><path style="opacity:1" fill="#fe5982" d="M 167.5,222.5 C 170.821,227.486 174.821,231.82 179.5,235.5C 183.073,240.65 185.573,246.317 187,252.5C 189.915,270.204 185.415,285.537 173.5,298.5C 165.073,299.765 157.406,297.931 150.5,293C 140.867,287.599 132.033,281.099 124,273.5C 111.839,260.194 105.006,244.527 103.5,226.5C 104.29,225.206 105.29,224.039 106.5,223C 126.719,209.206 147.052,209.039 167.5,222.5 Z"/></g>
<g><path style="opacity:1" fill="#fd5981" d="M 380.5,216.5 C 392.77,247.99 384.437,272.657 355.5,290.5C 345.286,270.213 346.286,250.546 358.5,231.5C 360.167,230.5 361.5,229.167 362.5,227.5C 367.571,222.298 373.571,218.632 380.5,216.5 Z"/></g>
<g><path style="opacity:1" fill="#502902" d="M 245.5,220.5 C 263.077,220.175 280.577,220.508 298,221.5C 297.198,241.313 292.865,260.313 285,278.5C 282.24,284.297 277.74,286.463 271.5,285C 267.667,282.5 264.5,279.333 262,275.5C 252.898,258.045 247.398,239.712 245.5,220.5 Z"/></g>
<g><path style="opacity:1" fill="#b4d25a" d="M 457.5,220.5 C 463.341,220.07 467.008,222.57 468.5,228C 462.56,243.149 456.227,258.149 449.5,273C 453.439,275.308 457.439,277.641 461.5,280C 465.123,284.561 466.29,289.728 465,295.5C 464.285,308.233 457.785,313.4 445.5,311C 428.807,345.846 401.14,364.679 362.5,367.5C 359.003,348.509 353.003,330.342 344.5,313C 344.78,311.605 345.447,310.438 346.5,309.5C 355.906,325.696 369.906,331.863 388.5,328C 401.488,324.012 411.155,316.012 417.5,304C 411.421,295.919 410.921,287.419 416,278.5C 418,275.833 420,273.167 422,270.5C 421.971,255.501 421.971,240.501 422,225.5C 425.74,222.587 429.074,222.92 432,226.5C 432.333,239.833 432.667,253.167 433,266.5C 435.228,268.113 437.728,268.78 440.5,268.5C 444.531,253.382 449.031,238.382 454,223.5C 455.145,222.364 456.312,221.364 457.5,220.5 Z"/></g>
<g><path style="opacity:1" fill="#fb0172" d="M 253.5,239.5 C 267.947,238.586 279.78,243.586 289,254.5C 287.882,264.242 284.382,273.075 278.5,281C 276.956,282.187 275.289,282.52 273.5,282C 271.04,280.542 268.873,278.709 267,276.5C 259.966,264.883 255.466,252.549 253.5,239.5 Z"/></g>
<g><path style="opacity:1" fill="#563608" d="M 425.5,271.5 C 434.554,273.574 443.22,276.74 451.5,281C 458.537,287.499 457.87,293.166 449.5,298C 446.405,298.313 443.405,297.813 440.5,296.5C 439.686,298.766 439.186,301.1 439,303.5C 438.282,306.234 436.782,306.9 434.5,305.5C 437.38,301.875 438.213,297.875 437,293.5C 437.414,293.043 437.914,292.709 438.5,292.5C 441.9,294.693 445.566,295.526 449.5,295C 452.491,292.859 453.658,290.025 453,286.5C 450.441,283.469 447.274,281.302 443.5,280C 437.572,277.857 431.572,276.023 425.5,274.5C 425.5,273.5 425.5,272.5 425.5,271.5 Z"/></g>
<g><path style="opacity:1" fill="#5d400e" d="M 296.5,324.5 C 297.586,324.62 298.253,325.287 298.5,326.5C 297.696,328.957 296.696,328.957 295.5,326.5C 295.863,325.817 296.196,325.15 296.5,324.5 Z"/></g>
<g><path style="opacity:1" fill="#768f3c" d="M 195.5,465.5 C 199.594,460.317 202.927,454.65 205.5,448.5C 205.253,447.287 204.586,446.62 203.5,446.5C 203.182,431.672 195.849,422.172 181.5,418C 164.286,416.594 153.286,424.094 148.5,440.5C 144.317,439.743 140.317,438.41 136.5,436.5C 137.826,430.852 140.492,425.852 144.5,421.5C 139.868,420.672 135.202,420.172 130.5,420C 128.033,419.204 126.7,417.537 126.5,415C 128.396,410.766 131.396,407.432 135.5,405C 128.699,405.05 122.366,403.383 116.5,400C 112.59,396.075 112.59,392.075 116.5,388C 120.833,385.5 125.167,383 129.5,380.5C 128.081,378.664 126.914,376.664 126,374.5C 123.848,366.145 127.015,362.979 135.5,365C 145.092,368.938 153.926,374.105 162,380.5C 160.133,376.836 159.466,372.836 160,368.5C 162.153,366.556 164.653,366.056 167.5,367C 172.684,370.356 176.684,374.856 179.5,380.5C 181.164,376.964 183.831,375.464 187.5,376C 192.236,380.856 195.069,386.689 196,393.5C 198.251,389.874 201.418,388.707 205.5,390C 210.1,392.215 214.266,395.048 218,398.5C 218.103,394.253 220.103,391.586 224,390.5C 230.931,392.137 236.598,395.804 241,401.5C 242.337,396.66 245.504,394.327 250.5,394.5C 257.575,395.371 263.575,398.371 268.5,403.5C 269.662,401.176 270.829,398.842 272,396.5C 280.976,387.775 288.31,389.108 294,400.5C 294.333,399.167 294.667,397.833 295,396.5C 301.875,391.001 308.542,391.334 315,397.5C 316.052,392.987 318.218,389.153 321.5,386C 328.355,384.677 333.189,387.177 336,393.5C 339.418,387.663 343.084,381.996 347,376.5C 348.845,373.817 351.345,372.15 354.5,371.5C 356.766,371.931 358.266,373.264 359,375.5C 359.333,379.5 359.667,383.5 360,387.5C 363.577,384.627 367.411,382.127 371.5,380C 373.833,379.333 376.167,379.333 378.5,380C 382.546,381.471 383.379,383.971 381,387.5C 377.248,390.629 373.081,393.129 368.5,395C 371.956,395.18 375.289,395.847 378.5,397C 381.296,400.741 380.963,404.241 377.5,407.5C 373.746,409.81 369.746,411.643 365.5,413C 368.458,413.229 370.958,414.396 373,416.5C 375.321,426.184 371.487,431.351 361.5,432C 363.049,433.214 364.215,434.714 365,436.5C 366.925,442.431 365.092,446.598 359.5,449C 355.5,449.333 351.5,449.667 347.5,450C 348.718,451.438 349.385,453.105 349.5,455C 349.852,460.301 347.519,463.634 342.5,465C 338.452,465.434 334.452,465.434 330.5,465C 335.193,467.689 335.527,470.689 331.5,474C 320.715,476.861 310.548,475.361 301,469.5C 301.32,472.46 301.32,475.46 301,478.5C 299.82,479.684 298.32,480.351 296.5,480.5C 289.038,478.956 282.204,475.956 276,471.5C 275.291,474.62 273.458,476.62 270.5,477.5C 265.644,475.822 261.144,473.489 257,470.5C 255.804,474.866 252.971,477.199 248.5,477.5C 242.246,475.703 236.913,472.37 232.5,467.5C 229.381,470.393 225.714,472.226 221.5,473C 210.663,476.15 206.163,472.316 208,461.5C 204.214,463.989 200.047,465.322 195.5,465.5 Z"/></g>
<g><path style="opacity:0.895" fill="#3e2716" d="M 382.5,408.5 C 386.447,415.225 388.114,422.559 387.5,430.5C 395.957,429.383 404.29,430.217 412.5,433C 418.579,437.518 419.079,442.685 414,448.5C 403.937,460.412 391.437,468.412 376.5,472.5C 373.153,472.334 370.319,471 368,468.5C 364.435,464.036 361.935,459.036 360.5,453.5C 361.514,452.326 362.847,451.66 364.5,451.5C 365.779,459.43 369.946,465.096 377,468.5C 391.107,463.61 402.774,455.277 412,443.5C 413.271,439.834 412.104,437.334 408.5,436C 400.169,434.411 391.836,434.078 383.5,435C 383.343,430.269 383.176,425.435 383,420.5C 382.378,417.261 381.212,414.261 379.5,411.5C 380.167,410.167 381.167,409.167 382.5,408.5 Z"/></g>
<g><path style="opacity:1" fill="#b3d15a" d="M 379.5,411.5 C 381.212,414.261 382.378,417.261 383,420.5C 383.176,425.435 383.343,430.269 383.5,435C 391.836,434.078 400.169,434.411 408.5,436C 412.104,437.334 413.271,439.834 412,443.5C 402.774,455.277 391.107,463.61 377,468.5C 369.946,465.096 365.779,459.43 364.5,451.5C 369.396,446.403 370.729,440.403 368.5,433.5C 376.884,430.393 379.717,424.393 377,415.5C 375.602,413.314 376.436,411.981 379.5,411.5 Z"/></g>
<g><path style="opacity:1" fill="#b4d35b" d="M 203.5,446.5 C 196.33,459.29 187.33,470.79 176.5,481C 169.045,486.558 161.379,486.891 153.5,482C 148.6,478.433 144.433,474.267 141,469.5C 136.879,472.618 133.046,476.118 129.5,480C 125.372,483.407 120.705,485.074 115.5,485C 111.914,469.788 114.081,455.288 122,441.5C 124.909,438.606 128.409,437.773 132.5,439C 138.226,440.697 143.559,443.197 148.5,446.5C 149.519,444.54 149.519,442.54 148.5,440.5C 153.286,424.094 164.286,416.594 181.5,418C 195.849,422.172 203.182,431.672 203.5,446.5 Z"/></g>
<g><path style="opacity:0.914" fill="#3e2816" d="M 132.5,434.5 C 133.671,435.345 135.005,436.011 136.5,436.5C 140.317,438.41 144.317,439.743 148.5,440.5C 149.519,442.54 149.519,444.54 148.5,446.5C 143.559,443.197 138.226,440.697 132.5,439C 128.409,437.773 124.909,438.606 122,441.5C 114.081,455.288 111.914,469.788 115.5,485C 120.705,485.074 125.372,483.407 129.5,480C 133.046,476.118 136.879,472.618 141,469.5C 144.433,474.267 148.6,478.433 153.5,482C 161.379,486.891 169.045,486.558 176.5,481C 187.33,470.79 196.33,459.29 203.5,446.5C 204.586,446.62 205.253,447.287 205.5,448.5C 202.927,454.65 199.594,460.317 195.5,465.5C 194.11,466.899 193.11,468.566 192.5,470.5C 188.731,475.532 184.398,480.032 179.5,484C 164.074,492.924 151.074,490.091 140.5,475.5C 136.648,479.186 132.648,482.686 128.5,486C 116.122,493.492 109.455,490.158 108.5,476C 109.277,462.724 112.777,450.224 119,438.5C 122.68,434.289 127.18,432.956 132.5,434.5 Z"/></g>
</svg>
